<svg width="31" height="32" viewBox="0 0 31 32" fill="none" xmlns="http://www.w3.org/2000/svg">
<path fill-rule="evenodd" clip-rule="evenodd" d="M15.2131 31.2062C17.2087 31.2062 19.1849 30.8131 21.0286 30.0494C22.8724 29.2857 24.5476 28.1663 25.9588 26.7552C27.3699 25.344 28.4893 23.6688 29.253 21.825C30.0167 19.9812 30.4098 18.0051 30.4098 16.0095C30.4098 14.0138 30.0167 12.0377 29.253 10.1939C28.4893 8.35018 27.3699 6.67491 25.9588 5.26376C24.5476 3.85261 22.8724 2.73323 21.0286 1.96953C19.1849 1.20582 17.2087 0.812744 15.2131 0.812744C11.1827 0.812744 7.31731 2.41382 4.46737 5.26376C1.61744 8.1137 0.0163574 11.979 0.0163574 16.0095C0.0163574 20.0399 1.61744 23.9052 4.46737 26.7552C7.31731 29.6051 11.1827 31.2062 15.2131 31.2062ZM14.8213 22.1557L23.264 12.0245L20.6704 9.86324L13.4097 18.5743L9.65277 14.8157L7.26519 17.2033L12.3308 22.2688L13.6377 23.5757L14.8213 22.1557Z" fill="#FEFDFB"/>
</svg>
