<svg width="14" height="23" viewBox="0 0 14 23" fill="none" xmlns="http://www.w3.org/2000/svg">
<path d="M3.65705 22.9343C3.51712 22.8633 3.40085 22.7384 3.32656 22.5793C3.25228 22.4201 3.22421 22.2358 3.2468 22.0554L4.49122 12.3216H1.18871C1.08401 12.3249 0.980065 12.2994 0.88489 12.2469C0.789716 12.1943 0.705858 12.1162 0.639786 12.0186C0.573715 11.921 0.527196 11.8064 0.50382 11.6838C0.480444 11.5611 0.480834 11.4337 0.504962 11.3112L2.55621 0.632785C2.59231 0.44901 2.68 0.285784 2.80454 0.170585C2.92907 0.0553855 3.08284 -0.00475269 3.23996 0.000293584H10.0775C10.1796 -0.000123673 10.2805 0.0269598 10.3728 0.0795541C10.4651 0.132148 10.5464 0.208917 10.6108 0.304218C10.676 0.400596 10.7223 0.513504 10.7459 0.634442C10.7696 0.75538 10.7702 0.881197 10.7475 1.00242L9.56465 7.39306H12.8125C12.9406 7.39275 13.0663 7.43571 13.1751 7.51704C13.2839 7.59838 13.3715 7.7148 13.4278 7.85305C13.4768 7.98574 13.4957 8.13166 13.4825 8.27595C13.4693 8.42024 13.4245 8.55775 13.3526 8.67447L4.46387 22.6386C4.4038 22.7456 4.32359 22.834 4.22974 22.8968C4.13589 22.9596 4.03105 22.995 3.92371 23C3.83224 22.9978 3.74187 22.9755 3.65705 22.9343Z" fill="#FEFDFB"/>
</svg>
