<svg width="982" height="262" viewBox="0 0 982 262" fill="none" xmlns="http://www.w3.org/2000/svg">
<path d="M408.057 117.637H389.509C389.171 115.238 388.479 113.106 387.434 111.243C386.39 109.352 385.049 107.743 383.411 106.416C381.774 105.089 379.883 104.073 377.737 103.367C375.62 102.661 373.319 102.308 370.835 102.308C366.346 102.308 362.436 103.423 359.105 105.653C355.774 107.855 353.191 111.074 351.356 115.308C349.521 119.515 348.603 124.625 348.603 130.638C348.603 136.82 349.521 142.015 351.356 146.221C353.219 150.427 355.816 153.603 359.147 155.749C362.478 157.894 366.332 158.967 370.708 158.967C373.164 158.967 375.436 158.643 377.525 157.993C379.643 157.344 381.52 156.398 383.157 155.156C384.795 153.886 386.15 152.347 387.223 150.54C388.324 148.734 389.086 146.673 389.509 144.358L408.057 144.442C407.577 148.423 406.377 152.262 404.457 155.961C402.566 159.631 400.011 162.919 396.793 165.827C393.603 168.707 389.792 170.993 385.359 172.687C380.955 174.353 375.973 175.186 370.411 175.186C362.676 175.186 355.76 173.435 349.662 169.935C343.592 166.434 338.793 161.367 335.264 154.733C331.763 148.098 330.013 140.067 330.013 130.638C330.013 121.18 331.792 113.135 335.349 106.5C338.906 99.8662 343.733 94.8129 349.831 91.3405C355.929 87.8399 362.789 86.0896 370.411 86.0896C375.436 86.0896 380.094 86.7954 384.385 88.2069C388.705 89.6185 392.53 91.6793 395.861 94.3894C399.192 97.0714 401.903 100.36 403.992 104.256C406.109 108.152 407.464 112.612 408.057 117.637ZM450.255 175.27C443.677 175.27 437.988 173.873 433.189 171.078C428.418 168.255 424.734 164.331 422.137 159.306C419.54 154.253 418.241 148.395 418.241 141.732C418.241 135.013 419.54 129.141 422.137 124.116C424.734 119.063 428.418 115.139 433.189 112.344C437.988 109.521 443.677 108.11 450.255 108.11C456.832 108.11 462.507 109.521 467.278 112.344C472.077 115.139 475.775 119.063 478.372 124.116C480.97 129.141 482.268 135.013 482.268 141.732C482.268 148.395 480.97 154.253 478.372 159.306C475.775 164.331 472.077 168.255 467.278 171.078C462.507 173.873 456.832 175.27 450.255 175.27ZM450.339 161.296C453.332 161.296 455.83 160.449 457.835 158.755C459.839 157.033 461.349 154.69 462.366 151.726C463.41 148.762 463.932 145.388 463.932 141.605C463.932 137.822 463.41 134.449 462.366 131.485C461.349 128.52 459.839 126.177 457.835 124.455C455.83 122.733 453.332 121.872 450.339 121.872C447.319 121.872 444.778 122.733 442.717 124.455C440.685 126.177 439.146 128.52 438.101 131.485C437.085 134.449 436.577 137.822 436.577 141.605C436.577 145.388 437.085 148.762 438.101 151.726C439.146 154.69 440.685 157.033 442.717 158.755C444.778 160.449 447.319 161.296 450.339 161.296ZM517.966 175.059C513.026 175.059 508.551 173.788 504.542 171.248C500.562 168.679 497.4 164.91 495.057 159.941C492.742 154.944 491.584 148.818 491.584 141.563C491.584 134.11 492.784 127.913 495.184 122.973C497.583 118.004 500.774 114.292 504.754 111.836C508.763 109.352 513.153 108.11 517.924 108.11C521.565 108.11 524.6 108.731 527.028 109.973C529.484 111.187 531.46 112.711 532.957 114.546C534.481 116.353 535.638 118.131 536.429 119.882H536.979V87.2753H554.976V174H537.191V163.583H536.429C535.582 165.39 534.382 167.182 532.829 168.961C531.305 170.711 529.315 172.165 526.859 173.322C524.431 174.48 521.467 175.059 517.966 175.059ZM523.683 160.703C526.591 160.703 529.047 159.913 531.051 158.332C533.084 156.723 534.636 154.478 535.709 151.599C536.81 148.719 537.361 145.346 537.361 141.478C537.361 137.611 536.824 134.251 535.751 131.4C534.679 128.549 533.126 126.347 531.093 124.794C529.061 123.241 526.591 122.465 523.683 122.465C520.719 122.465 518.22 123.269 516.187 124.879C514.155 126.488 512.616 128.718 511.572 131.569C510.527 134.421 510.005 137.724 510.005 141.478C510.005 145.261 510.527 148.606 511.572 151.514C512.645 154.394 514.183 156.652 516.187 158.29C518.22 159.899 520.719 160.703 523.683 160.703ZM599.45 175.27C592.76 175.27 587.001 173.915 582.173 171.205C577.374 168.467 573.676 164.599 571.079 159.602C568.481 154.577 567.183 148.635 567.183 141.775C567.183 135.084 568.481 129.212 571.079 124.159C573.676 119.105 577.332 115.167 582.046 112.344C586.789 109.521 592.35 108.11 598.73 108.11C603.022 108.11 607.016 108.801 610.714 110.185C614.441 111.54 617.687 113.586 620.454 116.325C623.249 119.063 625.423 122.507 626.975 126.657C628.528 130.779 629.304 135.606 629.304 141.139V146.094H574.382V134.915H612.324C612.324 132.317 611.759 130.017 610.63 128.012C609.501 126.008 607.934 124.441 605.929 123.312C603.953 122.154 601.652 121.576 599.027 121.576C596.289 121.576 593.861 122.211 591.743 123.481C589.654 124.723 588.017 126.403 586.831 128.52C585.646 130.609 585.039 132.938 585.01 135.507V146.136C585.01 149.355 585.603 152.135 586.789 154.478C588.003 156.822 589.711 158.628 591.913 159.899C594.115 161.169 596.726 161.804 599.747 161.804C601.751 161.804 603.586 161.522 605.252 160.957C606.917 160.393 608.343 159.546 609.529 158.417C610.714 157.287 611.618 155.904 612.239 154.267L628.923 155.368C628.076 159.377 626.34 162.877 623.715 165.87C621.117 168.834 617.758 171.149 613.636 172.814C609.543 174.452 604.814 175.27 599.45 175.27ZM673.958 174V87.2753H704.278C710.319 87.2753 715.302 88.3199 719.226 90.4089C723.15 92.4698 726.072 95.2505 727.992 98.7511C729.911 102.223 730.871 106.077 730.871 110.312C730.871 114.038 730.208 117.115 728.881 119.543C727.582 121.971 725.86 123.891 723.715 125.302C721.598 126.714 719.297 127.758 716.812 128.436V129.283C719.466 129.452 722.134 130.384 724.816 132.077C727.498 133.771 729.742 136.199 731.549 139.361C733.356 142.523 734.259 146.39 734.259 150.964C734.259 155.311 733.271 159.221 731.295 162.694C729.319 166.166 726.199 168.918 721.936 170.951C717.673 172.984 712.126 174 705.294 174H673.958ZM684.46 164.684H705.294C712.154 164.684 717.024 163.357 719.904 160.703C722.811 158.021 724.265 154.775 724.265 150.964C724.265 148.028 723.517 145.318 722.021 142.833C720.525 140.321 718.393 138.316 715.627 136.82C712.86 135.296 709.585 134.533 705.802 134.533H684.46V164.684ZM684.46 125.387H703.939C707.101 125.387 709.952 124.766 712.493 123.524C715.062 122.281 717.095 120.531 718.591 118.273C720.115 116.014 720.878 113.36 720.878 110.312C720.878 106.5 719.551 103.268 716.897 100.614C714.243 97.9324 710.037 96.5914 704.278 96.5914H684.46V125.387ZM777.431 175.355C771.164 175.355 765.757 173.972 761.212 171.205C756.695 168.41 753.209 164.514 750.753 159.518C748.325 154.493 747.111 148.649 747.111 141.986C747.111 135.324 748.325 129.452 750.753 124.37C753.209 119.261 756.625 115.28 761.001 112.429C765.405 109.549 770.542 108.11 776.414 108.11C779.802 108.11 783.147 108.674 786.45 109.803C789.753 110.933 792.76 112.768 795.47 115.308C798.18 117.821 800.34 121.152 801.949 125.302C803.558 129.452 804.363 134.562 804.363 140.631V144.866H754.225V136.227H794.2C794.2 132.557 793.466 129.283 791.998 126.403C790.558 123.524 788.497 121.251 785.815 119.585C783.162 117.92 780.028 117.087 776.414 117.087C772.434 117.087 768.99 118.075 766.082 120.051C763.203 121.999 760.986 124.54 759.434 127.673C757.881 130.807 757.105 134.166 757.105 137.752V143.511C757.105 148.423 757.952 152.587 759.645 156.003C761.368 159.391 763.753 161.974 766.802 163.752C769.851 165.503 773.394 166.378 777.431 166.378C780.056 166.378 782.428 166.011 784.545 165.277C786.69 164.514 788.54 163.385 790.092 161.889C791.645 160.365 792.845 158.473 793.692 156.215L803.347 158.925C802.33 162.2 800.622 165.079 798.223 167.563C795.823 170.019 792.859 171.939 789.33 173.322C785.801 174.678 781.835 175.355 777.431 175.355ZM845.82 199.746C840.992 199.746 836.842 199.125 833.37 197.883C829.898 196.669 827.004 195.06 824.689 193.056C822.402 191.08 820.581 188.962 819.226 186.704L827.187 181.114C828.091 182.3 829.234 183.655 830.617 185.179C832.001 186.732 833.892 188.073 836.292 189.202C838.72 190.36 841.896 190.938 845.82 190.938C851.071 190.938 855.404 189.668 858.82 187.127C862.236 184.587 863.944 180.606 863.944 175.186V161.974H863.097C862.363 163.159 861.318 164.627 859.963 166.378C858.636 168.1 856.717 169.638 854.204 170.993C851.72 172.32 848.36 172.984 844.126 172.984C838.875 172.984 834.16 171.742 829.982 169.257C825.832 166.773 822.543 163.159 820.116 158.417C817.716 153.674 816.516 147.915 816.516 141.139C816.516 134.477 817.688 128.676 820.031 123.735C822.374 118.767 825.635 114.927 829.813 112.217C833.991 109.479 838.818 108.11 844.295 108.11C848.53 108.11 851.889 108.815 854.374 110.227C856.886 111.61 858.806 113.191 860.133 114.97C861.488 116.72 862.532 118.16 863.266 119.289H864.282V108.956H873.937V175.863C873.937 181.453 872.667 185.998 870.126 189.499C867.614 193.027 864.226 195.611 859.963 197.248C855.729 198.914 851.014 199.746 845.82 199.746ZM845.481 164.006C849.49 164.006 852.877 163.089 855.644 161.254C858.411 159.419 860.514 156.779 861.953 153.335C863.393 149.891 864.113 145.769 864.113 140.97C864.113 136.284 863.407 132.148 861.996 128.563C860.584 124.977 858.495 122.168 855.729 120.136C852.962 118.103 849.546 117.087 845.481 117.087C841.246 117.087 837.717 118.16 834.894 120.305C832.1 122.451 829.996 125.33 828.585 128.944C827.201 132.557 826.51 136.566 826.51 140.97C826.51 145.487 827.216 149.482 828.627 152.954C830.067 156.398 832.184 159.108 834.979 161.084C837.802 163.032 841.303 164.006 845.481 164.006ZM892.231 174V108.956H902.225V174H892.231ZM897.312 98.1159C895.364 98.1159 893.685 97.4525 892.273 96.1256C890.89 94.7988 890.198 93.2038 890.198 91.3405C890.198 89.4773 890.89 87.8823 892.273 86.5554C893.685 85.2286 895.364 84.5652 897.312 84.5652C899.26 84.5652 900.926 85.2286 902.309 86.5554C903.721 87.8823 904.427 89.4773 904.427 91.3405C904.427 93.2038 903.721 94.7988 902.309 96.1256C900.926 97.4525 899.26 98.1159 897.312 98.1159ZM930.522 134.872V174H920.529V108.956H930.183V119.12H931.03C932.555 115.817 934.87 113.163 937.975 111.158C941.081 109.126 945.089 108.11 950.001 108.11C954.405 108.11 958.259 109.013 961.562 110.82C964.865 112.598 967.434 115.308 969.269 118.95C971.104 122.564 972.021 127.137 972.021 132.67V174H962.028V133.348C962.028 128.238 960.701 124.258 958.047 121.406C955.393 118.527 951.752 117.087 947.122 117.087C943.932 117.087 941.081 117.779 938.568 119.162C936.084 120.545 934.122 122.564 932.682 125.217C931.242 127.871 930.522 131.089 930.522 134.872Z" fill="#FEFDFB"/>
<rect width="262" height="262" rx="39.3" fill="#FEFDFB"/>
<path d="M151.924 71.1393C155.826 72.6399 157.829 77.1794 156.411 81.2912L120.486 185.496C119.06 189.608 114.761 191.724 110.866 190.231C106.965 188.73 104.961 184.191 106.38 180.079L142.305 75.8738C143.731 71.762 148.03 69.6461 151.924 71.1393ZM74.4756 132.606L101.007 160.623C103.933 163.714 103.933 168.727 101.007 171.818C100.331 172.55 99.5102 173.133 98.5973 173.532C97.6843 173.932 96.6987 174.138 95.7024 174.138C94.706 174.138 93.7204 173.932 92.8075 173.532C91.8946 173.133 91.0741 172.55 90.3976 171.818L58.5612 138.211C57.1522 136.686 56.3697 134.686 56.3697 132.61C56.3697 130.533 57.1522 128.533 58.5612 127.009L90.3976 93.3939C91.0741 92.6624 91.8946 92.0788 92.8075 91.6796C93.7204 91.2804 94.706 91.0743 95.7024 91.0743C96.6987 91.0743 97.6843 91.2804 98.5973 91.6796C99.5102 92.0788 100.331 92.6624 101.007 93.3939C102.418 94.9193 103.202 96.9209 103.202 98.9989C103.202 101.077 102.418 103.078 101.007 104.604L74.4756 132.606ZM188.315 132.606L161.784 104.604C160.375 103.079 159.592 101.079 159.592 99.0026C159.592 96.9264 160.375 94.9264 161.784 93.4014C162.46 92.6699 163.281 92.0863 164.193 91.6871C165.106 91.2879 166.092 91.0818 167.088 91.0818C168.085 91.0818 169.07 91.2879 169.983 91.6871C170.896 92.0863 171.717 92.6699 172.393 93.4014L204.23 127.009C207.156 130.1 207.156 135.112 204.23 138.211L172.393 171.811C171.717 172.542 170.896 173.126 169.983 173.525C169.07 173.924 168.085 174.13 167.088 174.13C166.092 174.13 165.106 173.924 164.193 173.525C163.281 173.126 162.46 172.542 161.784 171.811C160.377 170.286 159.596 168.288 159.596 166.213C159.596 164.139 160.377 162.14 161.784 160.616L188.315 132.606Z" fill="#1B1C1E"/>
</svg>
