<svg width="952" height="262" viewBox="0 0 952 262" fill="none" xmlns="http://www.w3.org/2000/svg">
<path d="M378.057 117.637H359.509C359.171 115.238 358.479 113.106 357.434 111.243C356.39 109.352 355.049 107.743 353.411 106.416C351.774 105.089 349.883 104.073 347.737 103.367C345.62 102.661 343.319 102.308 340.835 102.308C336.346 102.308 332.436 103.423 329.105 105.653C325.774 107.855 323.191 111.074 321.356 115.308C319.521 119.515 318.603 124.625 318.603 130.638C318.603 136.82 319.521 142.015 321.356 146.221C323.219 150.427 325.816 153.603 329.147 155.749C332.478 157.894 336.332 158.967 340.708 158.967C343.164 158.967 345.436 158.643 347.525 157.993C349.643 157.344 351.52 156.398 353.157 155.156C354.795 153.886 356.15 152.347 357.223 150.54C358.324 148.734 359.086 146.673 359.509 144.358L378.057 144.442C377.577 148.423 376.377 152.262 374.457 155.961C372.566 159.631 370.011 162.919 366.793 165.827C363.603 168.707 359.792 170.993 355.359 172.687C350.955 174.353 345.973 175.186 340.411 175.186C332.676 175.186 325.76 173.435 319.662 169.935C313.592 166.434 308.793 161.367 305.264 154.733C301.763 148.098 300.013 140.067 300.013 130.638C300.013 121.18 301.792 113.135 305.349 106.5C308.906 99.8662 313.733 94.8129 319.831 91.3405C325.929 87.8399 332.789 86.0896 340.411 86.0896C345.436 86.0896 350.094 86.7954 354.385 88.2069C358.705 89.6185 362.53 91.6793 365.861 94.3894C369.192 97.0714 371.903 100.36 373.992 104.256C376.109 108.152 377.464 112.612 378.057 117.637ZM420.255 175.27C413.677 175.27 407.988 173.873 403.189 171.078C398.418 168.255 394.734 164.331 392.137 159.306C389.54 154.253 388.241 148.395 388.241 141.732C388.241 135.013 389.54 129.141 392.137 124.116C394.734 119.063 398.418 115.139 403.189 112.344C407.988 109.521 413.677 108.11 420.255 108.11C426.832 108.11 432.507 109.521 437.278 112.344C442.077 115.139 445.775 119.063 448.372 124.116C450.97 129.141 452.268 135.013 452.268 141.732C452.268 148.395 450.97 154.253 448.372 159.306C445.775 164.331 442.077 168.255 437.278 171.078C432.507 173.873 426.832 175.27 420.255 175.27ZM420.339 161.296C423.332 161.296 425.83 160.449 427.835 158.755C429.839 157.033 431.349 154.69 432.366 151.726C433.41 148.762 433.932 145.388 433.932 141.605C433.932 137.822 433.41 134.449 432.366 131.485C431.349 128.52 429.839 126.177 427.835 124.455C425.83 122.733 423.332 121.872 420.339 121.872C417.319 121.872 414.778 122.733 412.717 124.455C410.685 126.177 409.146 128.52 408.101 131.485C407.085 134.449 406.577 137.822 406.577 141.605C406.577 145.388 407.085 148.762 408.101 151.726C409.146 154.69 410.685 157.033 412.717 158.755C414.778 160.449 417.319 161.296 420.339 161.296ZM487.966 175.059C483.026 175.059 478.551 173.788 474.542 171.248C470.562 168.679 467.4 164.91 465.057 159.941C462.742 154.944 461.584 148.818 461.584 141.563C461.584 134.11 462.784 127.913 465.184 122.973C467.583 118.004 470.774 114.292 474.754 111.836C478.763 109.352 483.153 108.11 487.924 108.11C491.565 108.11 494.6 108.731 497.028 109.973C499.484 111.187 501.46 112.711 502.957 114.546C504.481 116.353 505.638 118.131 506.429 119.882H506.979V87.2753H524.976V174H507.191V163.583H506.429C505.582 165.39 504.382 167.182 502.829 168.961C501.305 170.711 499.315 172.165 496.859 173.322C494.431 174.48 491.467 175.059 487.966 175.059ZM493.683 160.703C496.591 160.703 499.047 159.913 501.051 158.332C503.084 156.723 504.636 154.478 505.709 151.599C506.81 148.719 507.361 145.346 507.361 141.478C507.361 137.611 506.824 134.251 505.751 131.4C504.679 128.549 503.126 126.347 501.093 124.794C499.061 123.241 496.591 122.465 493.683 122.465C490.719 122.465 488.22 123.269 486.187 124.879C484.155 126.488 482.616 128.718 481.572 131.569C480.527 134.421 480.005 137.724 480.005 141.478C480.005 145.261 480.527 148.606 481.572 151.514C482.645 154.394 484.183 156.652 486.187 158.29C488.22 159.899 490.719 160.703 493.683 160.703ZM569.45 175.27C562.76 175.27 557.001 173.915 552.173 171.205C547.374 168.467 543.676 164.599 541.079 159.602C538.481 154.577 537.183 148.635 537.183 141.775C537.183 135.084 538.481 129.212 541.079 124.159C543.676 119.105 547.332 115.167 552.046 112.344C556.789 109.521 562.35 108.11 568.73 108.11C573.022 108.11 577.016 108.801 580.714 110.185C584.441 111.54 587.687 113.586 590.454 116.325C593.249 119.063 595.423 122.507 596.975 126.657C598.528 130.779 599.304 135.606 599.304 141.139V146.094H544.382V134.915H582.324C582.324 132.317 581.759 130.017 580.63 128.012C579.501 126.008 577.934 124.441 575.929 123.312C573.953 122.154 571.652 121.576 569.027 121.576C566.289 121.576 563.861 122.211 561.743 123.481C559.654 124.723 558.017 126.403 556.831 128.52C555.646 130.609 555.039 132.938 555.01 135.507V146.136C555.01 149.355 555.603 152.135 556.789 154.478C558.003 156.822 559.711 158.628 561.913 159.899C564.115 161.169 566.726 161.804 569.747 161.804C571.751 161.804 573.586 161.522 575.252 160.957C576.917 160.393 578.343 159.546 579.529 158.417C580.714 157.287 581.618 155.904 582.239 154.267L598.923 155.368C598.076 159.377 596.34 162.877 593.715 165.87C591.117 168.834 587.758 171.149 583.636 172.814C579.543 174.452 574.814 175.27 569.45 175.27ZM643.958 174V87.2753H674.278C680.319 87.2753 685.302 88.3199 689.226 90.4089C693.15 92.4698 696.072 95.2505 697.992 98.7511C699.911 102.223 700.871 106.077 700.871 110.312C700.871 114.038 700.208 117.115 698.881 119.543C697.582 121.971 695.86 123.891 693.715 125.302C691.598 126.714 689.297 127.758 686.812 128.436V129.283C689.466 129.452 692.134 130.384 694.816 132.077C697.498 133.771 699.742 136.199 701.549 139.361C703.356 142.523 704.259 146.39 704.259 150.964C704.259 155.311 703.271 159.221 701.295 162.694C699.319 166.166 696.199 168.918 691.936 170.951C687.673 172.984 682.126 174 675.294 174H643.958ZM654.46 164.684H675.294C682.154 164.684 687.024 163.357 689.904 160.703C692.811 158.021 694.265 154.775 694.265 150.964C694.265 148.028 693.517 145.318 692.021 142.833C690.525 140.321 688.393 138.316 685.627 136.82C682.86 135.296 679.585 134.533 675.802 134.533H654.46V164.684ZM654.46 125.387H673.939C677.101 125.387 679.952 124.766 682.493 123.524C685.062 122.281 687.095 120.531 688.591 118.273C690.115 116.014 690.878 113.36 690.878 110.312C690.878 106.5 689.551 103.268 686.897 100.614C684.243 97.9324 680.037 96.5914 674.278 96.5914H654.46V125.387ZM747.431 175.355C741.164 175.355 735.757 173.972 731.212 171.205C726.695 168.41 723.209 164.514 720.753 159.518C718.325 154.493 717.111 148.649 717.111 141.986C717.111 135.324 718.325 129.452 720.753 124.37C723.209 119.261 726.625 115.28 731.001 112.429C735.405 109.549 740.542 108.11 746.414 108.11C749.802 108.11 753.147 108.674 756.45 109.803C759.753 110.933 762.76 112.768 765.47 115.308C768.18 117.821 770.34 121.152 771.949 125.302C773.558 129.452 774.363 134.562 774.363 140.631V144.866H724.225V136.227H764.2C764.2 132.557 763.466 129.283 761.998 126.403C760.558 123.524 758.497 121.251 755.815 119.585C753.162 117.92 750.028 117.087 746.414 117.087C742.434 117.087 738.99 118.075 736.082 120.051C733.203 121.999 730.986 124.54 729.434 127.673C727.881 130.807 727.105 134.166 727.105 137.752V143.511C727.105 148.423 727.952 152.587 729.645 156.003C731.368 159.391 733.753 161.974 736.802 163.752C739.851 165.503 743.394 166.378 747.431 166.378C750.056 166.378 752.428 166.011 754.545 165.277C756.69 164.514 758.54 163.385 760.092 161.889C761.645 160.365 762.845 158.473 763.692 156.215L773.347 158.925C772.33 162.2 770.622 165.079 768.223 167.563C765.823 170.019 762.859 171.939 759.33 173.322C755.801 174.678 751.835 175.355 747.431 175.355ZM815.82 199.746C810.992 199.746 806.842 199.125 803.37 197.883C799.898 196.669 797.004 195.06 794.689 193.056C792.402 191.08 790.581 188.962 789.226 186.704L797.187 181.114C798.091 182.3 799.234 183.655 800.617 185.179C802.001 186.732 803.892 188.073 806.292 189.202C808.72 190.36 811.896 190.938 815.82 190.938C821.071 190.938 825.404 189.668 828.82 187.127C832.236 184.587 833.944 180.606 833.944 175.186V161.974H833.097C832.363 163.159 831.318 164.627 829.963 166.378C828.636 168.1 826.717 169.638 824.204 170.993C821.72 172.32 818.36 172.984 814.126 172.984C808.875 172.984 804.16 171.742 799.982 169.257C795.832 166.773 792.543 163.159 790.116 158.417C787.716 153.674 786.516 147.915 786.516 141.139C786.516 134.477 787.688 128.676 790.031 123.735C792.374 118.767 795.635 114.927 799.813 112.217C803.991 109.479 808.818 108.11 814.295 108.11C818.53 108.11 821.889 108.815 824.374 110.227C826.886 111.61 828.806 113.191 830.133 114.97C831.488 116.72 832.532 118.16 833.266 119.289H834.282V108.956H843.937V175.863C843.937 181.453 842.667 185.998 840.126 189.499C837.614 193.027 834.226 195.611 829.963 197.248C825.729 198.914 821.014 199.746 815.82 199.746ZM815.481 164.006C819.49 164.006 822.877 163.089 825.644 161.254C828.411 159.419 830.514 156.779 831.953 153.335C833.393 149.891 834.113 145.769 834.113 140.97C834.113 136.284 833.407 132.148 831.996 128.563C830.584 124.977 828.495 122.168 825.729 120.136C822.962 118.103 819.546 117.087 815.481 117.087C811.246 117.087 807.717 118.16 804.894 120.305C802.1 122.451 799.996 125.33 798.585 128.944C797.201 132.557 796.51 136.566 796.51 140.97C796.51 145.487 797.216 149.482 798.627 152.954C800.067 156.398 802.184 159.108 804.979 161.084C807.802 163.032 811.303 164.006 815.481 164.006ZM862.231 174V108.956H872.225V174H862.231ZM867.312 98.1159C865.364 98.1159 863.685 97.4525 862.273 96.1256C860.89 94.7988 860.198 93.2038 860.198 91.3405C860.198 89.4773 860.89 87.8823 862.273 86.5554C863.685 85.2286 865.364 84.5652 867.312 84.5652C869.26 84.5652 870.926 85.2286 872.309 86.5554C873.721 87.8823 874.427 89.4773 874.427 91.3405C874.427 93.2038 873.721 94.7988 872.309 96.1256C870.926 97.4525 869.26 98.1159 867.312 98.1159ZM900.522 134.872V174H890.529V108.956H900.183V119.12H901.03C902.555 115.817 904.87 113.163 907.975 111.158C911.081 109.126 915.089 108.11 920.001 108.11C924.405 108.11 928.259 109.013 931.562 110.82C934.865 112.598 937.434 115.308 939.269 118.95C941.104 122.564 942.021 127.137 942.021 132.67V174H932.028V133.348C932.028 128.238 930.701 124.258 928.047 121.406C925.393 118.527 921.752 117.087 917.122 117.087C913.932 117.087 911.081 117.779 908.568 119.162C906.084 120.545 904.122 122.564 902.682 125.217C901.242 127.871 900.522 131.089 900.522 134.872Z" fill="#1B1C1E"/>
<rect width="262" height="262" rx="39.3" fill="#FEFDFB"/>
<path d="M151.924 71.1393C155.826 72.6399 157.829 77.1794 156.411 81.2912L120.486 185.496C119.06 189.608 114.761 191.724 110.866 190.231C106.965 188.73 104.961 184.191 106.38 180.079L142.305 75.8738C143.731 71.762 148.03 69.6461 151.924 71.1393ZM74.4756 132.606L101.007 160.623C103.933 163.714 103.933 168.727 101.007 171.818C100.331 172.55 99.5102 173.133 98.5973 173.532C97.6843 173.932 96.6987 174.138 95.7024 174.138C94.706 174.138 93.7204 173.932 92.8075 173.532C91.8946 173.133 91.0741 172.55 90.3976 171.818L58.5612 138.211C57.1522 136.686 56.3697 134.686 56.3697 132.61C56.3697 130.533 57.1522 128.533 58.5612 127.009L90.3976 93.3939C91.0741 92.6624 91.8946 92.0788 92.8075 91.6796C93.7204 91.2804 94.706 91.0743 95.7024 91.0743C96.6987 91.0743 97.6843 91.2804 98.5973 91.6796C99.5102 92.0788 100.331 92.6624 101.007 93.3939C102.418 94.9193 103.202 96.9209 103.202 98.9989C103.202 101.077 102.418 103.078 101.007 104.604L74.4756 132.606ZM188.315 132.606L161.784 104.604C160.375 103.079 159.592 101.079 159.592 99.0026C159.592 96.9264 160.375 94.9264 161.784 93.4014C162.46 92.6699 163.281 92.0863 164.193 91.6871C165.106 91.2879 166.092 91.0818 167.088 91.0818C168.085 91.0818 169.07 91.2879 169.983 91.6871C170.896 92.0863 171.717 92.6699 172.393 93.4014L204.23 127.009C207.156 130.1 207.156 135.112 204.23 138.211L172.393 171.811C171.717 172.542 170.896 173.126 169.983 173.525C169.07 173.924 168.085 174.13 167.088 174.13C166.092 174.13 165.106 173.924 164.193 173.525C163.281 173.126 162.46 172.542 161.784 171.811C160.377 170.286 159.596 168.288 159.596 166.213C159.596 164.139 160.377 162.14 161.784 160.616L188.315 132.606Z" fill="#1B1C1E"/>
</svg>
